HIERARCHY
ROOT Hips
{
  OFFSET 5.72205e-005 65.662 3.42586
  CHANNELS 6 Xposition Yposition Zposition Zrotation Xrotation Yrotation
  JOINT Chest
  {
    OFFSET 0 8.7983 -4.7612
    CHANNELS 3 Zrotation Xrotation Yrotation
    JOINT Chest2
    {
      OFFSET 0 8.0291 0.4195
      CHANNELS 3 Zrotation Xrotation Yrotation
      JOINT Chest3
      {
        OFFSET 0 9.9351 -2.2114
        CHANNELS 3 Zrotation Xrotation Yrotation
        JOINT Neck
        {
          OFFSET 0 22.3885 -0.4656
          CHANNELS 3 Zrotation Xrotation Yrotation
          JOINT Head
          {
            OFFSET -0.0001 12.643 3.4389
            CHANNELS 3 Zrotation Xrotation Yrotation
            End Site
            {
              OFFSET 0.0001 17.6655 0.5274
            }
          }
        }
        JOINT LeftCollar
        {
          OFFSET 2.2603 21.606 7.4023
          CHANNELS 3 Zrotation Xrotation Yrotation
          JOINT LeftShoulder
          {
            OFFSET 13.5163 -1.1332 -5.0146
            CHANNELS 3 Zrotation Xrotation Yrotation
            JOINT LeftElbow
            {
              OFFSET -0.0995 -28.05 -0.2431
              CHANNELS 3 Zrotation Xrotation Yrotation
              JOINT LeftWrist
              {
                OFFSET 0.0679 -23.3996 -0.1402
                CHANNELS 3 Zrotation Xrotation Yrotation
                JOINT LeftFinger1
                {
                  OFFSET 0.7932 -9.069 2.5189
                  CHANNELS 3 Zrotation Xrotation Yrotation
                  JOINT LeftFinger11
                  {
                    OFFSET -0.8272 -3.3923 0.5977
                    CHANNELS 3 Zrotation Xrotation Yrotation
                    JOINT LeftFinger12
                    {
                      OFFSET -0.5649 -2.3158 0.4082
                      CHANNELS 3 Zrotation Xrotation Yrotation
                      End Site
                      {
                        OFFSET -0.4919 -1.6479 0.2673
                      }
                    }
                  }
                }
                JOINT LeftFinger2
                {
                  OFFSET 0.9159 -9.2044 0.2193
                  CHANNELS 3 Zrotation Xrotation Yrotation
                  JOINT LeftFinger21
                  {
                    OFFSET 0.0117 -4.1944 -0.0248
                    CHANNELS 3 Zrotation Xrotation Yrotation
                    JOINT LeftFinger22
                    {
                      OFFSET 0.0071 -2.3249 -0.0142
                      CHANNELS 3 Zrotation Xrotation Yrotation
                      End Site
                      {
                        OFFSET -0.1475 -2.0882 0.0028
                      }
                    }
                  }
                }
                JOINT LeftFinger3
                {
                  OFFSET 0.6113 -8.7231 -2.0637
                  CHANNELS 3 Zrotation Xrotation Yrotation
                  JOINT LeftFinger31
                  {
                    OFFSET -0.1927 -3.8059 -0.2383
                    CHANNELS 3 Zrotation Xrotation Yrotation
                    JOINT LeftFinger32
                    {
                      OFFSET -0.1091 -2.1688 -0.1362
                      CHANNELS 3 Zrotation Xrotation Yrotation
                      End Site
                      {
                        OFFSET -0.2358 -1.9176 -0.0906
                      }
                    }
                  }
                }
                JOINT LeftFinger4
                {
                  OFFSET -0.6151 -8.0947 -3.5641
                  CHANNELS 3 Zrotation Xrotation Yrotation
                  JOINT LeftFinger41
                  {
                    OFFSET -0.4882 -2.341 -0.6462
                    CHANNELS 3 Zrotation Xrotation Yrotation
                    JOINT LeftFinger42
                    {
                      OFFSET -0.3575 -1.7167 -0.4742
                      CHANNELS 3 Zrotation Xrotation Yrotation
                      End Site
                      {
                        OFFSET -0.4187 -1.5237 -0.3496
                      }
                    }
                  }
                }
                JOINT LeftFinger0
                {
                  OFFSET -1.42 -1.8761 1.4223
                  CHANNELS 3 Zrotation Xrotation Yrotation
                  JOINT LeftFinger01
                  {
                    OFFSET -1.1471 -3.4929 2.6334
                    CHANNELS 3 Zrotation Xrotation Yrotation
                    JOINT LeftFinger02
                    {
                      OFFSET -0.823 -2.3 1.6571
                      CHANNELS 3 Zrotation Xrotation Yrotation
                      End Site
                      {
                        OFFSET -0.5822 -1.6914 1.1582
                      }
                    }
                  }
                }
              }
            }
          }
        }
        JOINT RightCollar
        {
          OFFSET -2.2603 21.606 7.4023
          CHANNELS 3 Zrotation Xrotation Yrotation
          JOINT RightShoulder
          {
            OFFSET -13.5187 -1.1334 -5.0155
            CHANNELS 3 Zrotation Xrotation Yrotation
            JOINT RightElbow
            {
              OFFSET 0.0994 -28.0499 -0.2431
              CHANNELS 3 Zrotation Xrotation Yrotation
              JOINT RightWrist
              {
                OFFSET -0.0679 -23.3996 -0.1402
                CHANNELS 3 Zrotation Xrotation Yrotation
                JOINT RightFinger1
                {
                  OFFSET -0.7932 -9.0691 2.5189
                  CHANNELS 3 Zrotation Xrotation Yrotation
                  JOINT RightFinger11
                  {
                    OFFSET 0.8272 -3.3923 0.5977
                    CHANNELS 3 Zrotation Xrotation Yrotation
                    JOINT RightFinger12
                    {
                      OFFSET 0.565 -2.3158 0.4082
                      CHANNELS 3 Zrotation Xrotation Yrotation
                      End Site
                      {
                        OFFSET 0.4919 -1.6479 0.2673
                      }
                    }
                  }
                }
                JOINT RightFinger2
                {
                  OFFSET -0.916 -9.2044 0.2193
                  CHANNELS 3 Zrotation Xrotation Yrotation
                  JOINT RightFinger21
                  {
                    OFFSET -0.0117 -4.1944 -0.0248
                    CHANNELS 3 Zrotation Xrotation Yrotation
                    JOINT RightFinger22
                    {
                      OFFSET -0.0071 -2.3249 -0.0142
                      CHANNELS 3 Zrotation Xrotation Yrotation
                      End Site
                      {
                        OFFSET 0.1475 -2.0882 0.0028
                      }
                    }
                  }
                }
                JOINT RightFinger3
                {
                  OFFSET -0.6113 -8.7231 -2.0637
                  CHANNELS 3 Zrotation Xrotation Yrotation
                  JOINT RightFinger31
                  {
                    OFFSET 0.1927 -3.8059 -0.2383
                    CHANNELS 3 Zrotation Xrotation Yrotation
                    JOINT RightFinger32
                    {
                      OFFSET 0.1091 -2.1688 -0.1362
                      CHANNELS 3 Zrotation Xrotation Yrotation
                      End Site
                      {
                        OFFSET 0.2358 -1.9176 -0.0906
                      }
                    }
                  }
                }
                JOINT RightFinger4
                {
                  OFFSET 0.6151 -8.0947 -3.564
                  CHANNELS 3 Zrotation Xrotation Yrotation
                  JOINT RightFinger41
                  {
                    OFFSET 0.4882 -2.341 -0.6462
                    CHANNELS 3 Zrotation Xrotation Yrotation
                    JOINT RightFinger42
                    {
                      OFFSET 0.3574 -1.7166 -0.4742
                      CHANNELS 3 Zrotation Xrotation Yrotation
                      End Site
                      {
                        OFFSET 0.4187 -1.5237 -0.3496
                      }
                    }
                  }
                }
                JOINT RightFinger0
                {
                  OFFSET 1.4199 -1.8761 1.4221
                  CHANNELS 3 Zrotation Xrotation Yrotation
                  JOINT RightFinger01
                  {
                    OFFSET 1.1472 -3.4929 2.6336
                    CHANNELS 3 Zrotation Xrotation Yrotation
                    JOINT RightFinger02
                    {
                      OFFSET 0.8229 -2.3 1.6571
                      CHANNELS 3 Zrotation Xrotation Yrotation
                      End Site
                      {
                        OFFSET 0.5822 -1.6914 1.1582
                      }
                    }
                  }
                }
              }
            }
          }
        }
      }
    }
  }
  JOINT RightHip
  {
    OFFSET -9.412 3.9771 -0.7758
    CHANNELS 3 Zrotation Xrotation Yrotation
    JOINT RightKnee
    {
      OFFSET -0.7531 -40.938 0
      CHANNELS 3 Zrotation Xrotation Yrotation
      JOINT RightAnkle
      {
        OFFSET 0 -40.1986 0
        CHANNELS 3 Zrotation Xrotation Yrotation
        JOINT RightToe
        {
          OFFSET 0 -4.4182 9.239
          CHANNELS 3 Zrotation Xrotation Yrotation
          End Site
          {
            OFFSET 0 0 6.1981
          }
        }
      }
    }
  }
  JOINT LeftHip
  {
    OFFSET 9.4119 3.9773 -0.7758
    CHANNELS 3 Zrotation Xrotation Yrotation
    JOINT LeftKnee
    {
      OFFSET 0.7532 -40.9383 0
      CHANNELS 3 Zrotation Xrotation Yrotation
      JOINT LeftAnkle
      {
        OFFSET 0 -40.1986 0
        CHANNELS 3 Zrotation Xrotation Yrotation
        JOINT LeftToe
        {
          OFFSET 0 -4.4182 9.239
          CHANNELS 3 Zrotation Xrotation Yrotation
          End Site
          {
            OFFSET 0 0 6.1981
          }
        }
      }
    }
  }
}
MOTION
Frames:	5
Frame Time:	0.0333333
5.72205e-005 65.662 3.42586 0 0 -0 0 0 -0 0 0 -0 0 0 -0 0 0 -0 0 0 -0 0 0 -12.5014 88.1196 14.2451 10.6914 -0.00160068 -0.00239207 0.000740045 -8.4365e-005 7.00714e-005 -9.52055e-007 9.93923e-017 -1.98785e-016 -1.59028e-015 9.93923e-017 -5.96354e-016 -1.59028e-015 -9.93923e-017 -5.96354e-016 -1.59028e-015 9.93923e-017 -1.98785e-016 -1.59028e-015 -0.0128176 0.00232552 8.52707e-005 9.93923e-017 5.96354e-016 -0 9.93923e-017 -1.98785e-016 -1.59028e-015 -0.0160551 0.00299681 0.000857156 -2.48481e-016 0 3.18055e-015 9.93923e-017 -1.98785e-016 -1.59028e-015 -0.0125865 0.0031206 0.00282719 0 1.98785e-016 -0 9.93923e-017 -1.98785e-016 -1.59028e-015 9.93923e-017 -5.96354e-016 -1.59028e-015 -9.93923e-017 -5.96354e-016 -1.59028e-015 -0.865644 0.16582 7.03859 -88.0329 10.2057 -10.5567 0.0015593 -0.00248883 -0.000788628 7.87605e-005 4.10553e-005 1.24965e-005 -3.97569e-016 -7.95139e-016 3.18055e-015 -1.98785e-016 -3.97569e-016 3.18055e-015 -1.98785e-016 0 3.18055e-015 -3.97569e-016 -7.95139e-016 3.18055e-015 0.0129473 0.00231697 -8.70038e-005 9.93923e-017 -7.95139e-016 1.59028e-015 -3.97569e-016 -7.95139e-016 3.18055e-015 0.0163314 0.00303369 -0.000872333 3.97569e-016 7.95139e-016 -3.18055e-015 -3.97569e-016 -7.95139e-016 3.18055e-015 0.0145763 0.00367772 -0.00326275 9.93923e-017 -3.97569e-016 -0 -3.97569e-016 -7.95139e-016 3.18055e-015 -1.98785e-016 -3.97569e-016 3.18055e-015 -1.98785e-016 0 3.18055e-015 3.42482 1.32465 -0.0626183 0.000117508 0.717283 0.000978199 -3.4257 -2.04197 -0.0604716 6.47761e-025 0 -0 -3.42483 1.34017 0.0627307 -0.000193936 0.682302 -0.0013703 3.42574 -2.02253 0.0595886 -8.45714e-024 0 -7.40531e-025 
-0.00338591 65.6126 49.4271 180 75.0041 -180 -0.331629 -1.27996 -0.707435 -0.679298 -2.55568 -1.4228 -0.679295 -2.5557 -1.4228 8.56834e-006 0.215097 1.74008e-005 1.22706e-006 0.274517 -5.50717e-008 13.679 -0.553091 -55.2979 83.8957 -10.2475 39.5066 10.5371 -28.4646 1.59965 42.5192 -12.3563 13.6282 -3.18055e-015 0 -7.95139e-015 -3.18055e-015 -3.18055e-015 -4.77083e-015 -6.36111e-015 0 -7.95139e-015 -3.18055e-015 0 -7.95139e-015 -0.0128815 0.00233453 8.81178e-005 -9.94079e-007 2.96473e-007 -2.53166e-006 -3.18055e-015 0 -7.95139e-015 -0.0160052 0.00298028 0.000860325 9.54166e-015 -3.18055e-015 1.11319e-014 -3.18055e-015 0 -7.95139e-015 -0.0125921 0.00312468 0.00283631 -9.54166e-015 -6.36111e-015 -1.11319e-014 -3.18055e-015 0 -7.95139e-015 -3.18055e-015 -3.18055e-015 -4.77083e-015 -6.36111e-015 0 -7.95139e-015 -14.1015 -0.651621 48.7983 -82.8587 -15.5381 -38.8363 -11.0368 -29.9838 -2.54939 -42.6977 -10.3174 -13.3728 3.18055e-015 -3.18055e-015 6.36111e-015 3.18055e-015 6.36111e-015 6.36111e-015 -8.82781e-031 6.36111e-015 7.95139e-015 3.18055e-015 -3.18055e-015 6.36111e-015 0.0128907 0.00230446 -8.15454e-005 3.18055e-015 9.54166e-015 -1.59028e-015 3.18055e-015 -3.18055e-015 6.36111e-015 0.016306 0.00302362 -0.000867829 1.58901e-030 1.90833e-014 -4.77083e-015 3.18055e-015 -3.18055e-015 6.36111e-015 0.0145466 0.00367511 -0.00325056 5.29669e-031 -9.54166e-015 3.18055e-015 3.18055e-015 -3.18055e-015 6.36111e-015 3.18055e-015 6.36111e-015 6.36111e-015 -8.82781e-031 6.36111e-015 7.95139e-015 -165.403 -76.2825 -164.288 4.84728 7.69446 -1.53827 -6.12603 31.7824 -3.33348 6.00846e-007 4.84928e-008 -4.23296e-008 164.319 -75.6673 165.049 -5.75838 8.97423 1.64673 7.83848 30.9747 1.34352 1.20177e-006 2.50116e-006 -8.427e-008 
-0.0041613 65.6124 49.1892 180 75.0041 -180 -0.337844 -1.59565 -0.707961 -0.6958 -3.18693 -1.42616 -0.6958 -3.18695 -1.42616 -2.27415e-005 0.213954 -4.84955e-005 1.3702e-006 0.273236 -1.63796e-008 13.289 0.498448 -55.5801 83.8957 -10.2475 39.5066 10.5371 -28.4646 1.59965 41.9747 -12.481 13.2094 6.36111e-015 6.36111e-015 3.18055e-015 -0 0 1.59028e-015 3.18055e-015 6.36111e-015 1.59028e-015 6.36111e-015 6.36111e-015 3.18055e-015 -0.0128419 0.00232306 8.9865e-005 8.82781e-032 3.18055e-015 -1.59028e-015 6.36111e-015 6.36111e-015 3.18055e-015 -0.0160729 0.00299178 0.000859479 -6.36111e-015 3.18055e-015 4.77083e-015 6.36111e-015 6.36111e-015 3.18055e-015 -0.0124695 0.00310089 0.00281273 6.36111e-015 6.36111e-015 -0 6.36111e-015 6.36111e-015 3.18055e-015 -0 0 1.59028e-015 3.18055e-015 6.36111e-015 1.59028e-015 -13.7292 0.350367 49.1522 -82.8586 -15.5381 -38.8363 -11.0369 -29.9839 -2.54943 -42.1304 -10.5677 -13.0088 -6.75063e-006 -9.28837e-006 5.70784e-006 -7.94503e-031 9.54166e-015 4.77083e-015 6.36111e-015 3.18055e-015 -0 -6.75063e-006 -9.28837e-006 5.70784e-006 0.0129562 0.00231799 -8.37626e-005 3.18055e-015 3.18055e-015 3.18055e-015 -6.75063e-006 -9.28837e-006 5.70784e-006 0.0163195 0.00302617 -0.000875418 7.06225e-031 6.36111e-015 -6.36111e-015 -6.75063e-006 -9.28837e-006 5.70784e-006 0.0147028 0.00371176 -0.00329522 1.59728e-006 1.12592e-006 5.89483e-007 -6.75063e-006 -9.28837e-006 5.70784e-006 -7.94503e-031 9.54166e-015 4.77083e-015 6.36111e-015 3.18055e-015 -0 -165.423 -76.2677 -164.309 4.84754 7.73179 -1.5407 -6.12586 31.7606 -3.33429 2.06327e-007 -2.59247e-006 -2.26276e-007 164.721 -75.5086 165.247 -5.75987 9.065 1.65318 7.66549 31.1614 1.55222 1.41035e-007 -6.36111e-015 -1.60108e-007 
-0.00494715 65.6122 48.9513 180 75.0041 -180 -0.343908 -1.91742 -0.708169 -0.712113 -3.83043 -1.42904 -0.712113 -3.83044 -1.42904 -1.20009e-005 0.212983 -2.50771e-005 -1.14202e-007 0.271957 -2.00346e-007 12.9035 1.55379 -55.8557 83.8957 -10.2475 39.5066 10.5371 -28.4645 1.59966 41.4288 -12.6019 12.789 1.76556e-031 3.18055e-015 -3.18055e-015 -3.18055e-015 0 -3.18055e-015 -3.18055e-015 0 4.77083e-015 1.76556e-031 3.18055e-015 -3.18055e-015 -0.0128842 0.00233429 8.86521e-005 3.18055e-015 6.36111e-015 -0 1.76556e-031 3.18055e-015 -3.18055e-015 -0.0160599 0.00300027 0.000859939 -3.18055e-015 3.18055e-015 4.77083e-015 1.76556e-031 3.18055e-015 -3.18055e-015 -0.0126383 0.00313385 0.00284632 -3.18055e-015 0 1.59028e-015 1.76556e-031 3.18055e-015 -3.18055e-015 -3.18055e-015 0 -3.18055e-015 -3.18055e-015 0 4.77083e-015 -13.3623 1.3563 49.5003 -82.8587 -15.5381 -38.8363 -11.0368 -29.9838 -2.54935 -41.5608 -10.8146 -12.6418 -3.39101e-006 3.40537e-006 3.85203e-007 6.36111e-015 3.18055e-015 3.18055e-015 -3.18055e-015 0 -4.77083e-015 -3.39101e-006 3.40537e-006 3.85203e-007 0.01298 0.00231438 -8.24175e-005 -3.18055e-015 3.18055e-015 3.18055e-015 -3.39101e-006 3.40537e-006 3.85203e-007 0.0163287 0.0030238 -0.000865085 -3.18055e-015 -3.18055e-015 1.59028e-015 -3.39101e-006 3.40537e-006 3.85203e-007 0.0146477 0.00368588 -0.00327585 3.18055e-015 0 3.18055e-015 -3.39101e-006 3.40537e-006 3.85203e-007 6.36111e-015 3.18055e-015 3.18055e-015 -3.18055e-015 0 -4.77083e-015 -165.402 -76.2878 -164.287 4.84722 7.69287 -1.53834 -6.12716 31.7788 -3.33351 1.00493e-006 -8.91136e-006 1.13069e-007 165.117 -75.349 165.44 -5.76138 9.15749 1.65967 7.49109 31.3466 1.76218 1.20222e-006 -5.28126e-008 -8.01617e-008 
-0.00574344 65.6121 48.7134 180 75.0041 -180 -0.349787 -2.24466 -0.708019 -0.728168 -4.48479 -1.4314 -0.728167 -4.48479 -1.43139 -1.91812e-006 0.212064 -3.11449e-006 -8.61465e-008 0.270664 -6.23287e-007 12.5222 2.61251 -56.1248 83.8955 -10.2476 39.5066 10.5374 -28.4646 1.5997 40.8814 -12.719 12.3671 -4.10669e-006 6.50031e-006 1.04525e-005 -3.27945e-006 1.08613e-006 7.40245e-007 3.18055e-015 3.18055e-015 -0 -4.10669e-006 6.50031e-006 1.04525e-005 -0.0128601 0.00234406 9.25319e-005 3.18055e-015 6.36111e-015 1.59028e-015 -4.10669e-006 6.50031e-006 1.04525e-005 -0.016018 0.00299733 0.000861805 6.36111e-015 0 -3.18055e-015 -4.10669e-006 6.50031e-006 1.04525e-005 -0.0125629 0.00312224 0.00281649 6.36111e-015 3.18055e-015 -1.59028e-015 -4.10669e-006 6.50031e-006 1.04525e-005 -3.27945e-006 1.08613e-006 7.40245e-007 3.18055e-015 3.18055e-015 -0 -13.0008 2.36586 49.8426 -82.8586 -15.5381 -38.8363 -11.0369 -29.9839 -2.5494 -40.9887 -11.058 -12.2718 8.82781e-032 -3.18055e-015 1.59028e-015 0 0 -1.59028e-015 8.82781e-032 3.18055e-015 -1.59028e-015 8.82781e-032 -3.18055e-015 1.59028e-015 0.0129532 0.0023169 -8.85782e-005 -3.18055e-015 9.54166e-015 -3.18055e-015 8.82781e-032 -3.18055e-015 1.59028e-015 0.0163005 0.00302989 -0.000861666 -3.18055e-015 3.18055e-015 -3.18055e-015 8.82781e-032 -3.18055e-015 1.59028e-015 0.0144582 0.00365633 -0.00323715 6.36111e-015 3.18055e-015 -3.18055e-015 8.82781e-032 -3.18055e-015 1.59028e-015 0 0 -1.59028e-015 8.82781e-032 3.18055e-015 -1.59028e-015 -165.408 -76.2846 -164.293 4.84736 7.70365 -1.53914 -6.12753 31.7715 -3.33374 -1.78631e-007 1.55197e-008 -4.38772e-007 165.508 -75.1886 165.628 -5.7629 9.25113 1.6661 7.3153 31.5307 1.97338 -1.76581e-007 5.49621e-009 -4.39918e-007 
